<?xml version="1.0" standalone="no"?>
<!DOCTYPE svg PUBLIC "-//W3C//DTD SVG 20010904//EN"
 "http://www.w3.org/TR/2001/REC-SVG-20010904/DTD/svg10.dtd">
<svg version="1.0" xmlns="http://www.w3.org/2000/svg"
 width="1000.000000pt" height="564.000000pt" viewBox="0 0 1000.000000 564.000000"
 preserveAspectRatio="xMidYMid meet">

<g transform="translate(0.000000,564.000000) scale(0.100000,-0.100000)"
fill="#000000" stroke="none">
<path d="M2630 5619 c0 -5 5 -7 10 -4 6 3 10 8 10 11 0 2 -4 4 -10 4 -5 0 -10
-5 -10 -11z"/>
<path d="M2603 5585 c-3 -9 -3 -19 1 -22 3 -4 6 1 6 10 0 8 6 18 13 20 9 4 9
6 -1 6 -7 1 -15 -6 -19 -14z"/>
<path d="M2568 5537 c-7 -13 -21 -39 -31 -56 -10 -17 -16 -31 -14 -31 8 0 69
101 64 106 -3 3 -11 -6 -19 -19z"/>
<path d="M4964 5495 c-8 -54 11 -89 52 -99 14 -4 27 -6 28 -4 2 2 -14 35 -35
75 l-38 72 -7 -44z"/>
<path d="M2478 5378 c-20 -32 -29 -58 -20 -58 10 0 45 70 39 77 -2 2 -11 -7
-19 -19z"/>
<path d="M5115 5309 c9 -16 23 -33 31 -36 18 -7 84 5 84 16 0 7 -106 51 -124
51 -3 0 1 -14 9 -31z"/>
<path d="M5314 5265 c27 -14 57 -32 67 -41 12 -11 19 -12 24 -4 16 25 -53 70
-107 70 l-33 0 49 -25z"/>
<path d="M3760 5261 c0 -6 4 -13 10 -16 6 -3 7 1 4 9 -7 18 -14 21 -14 7z"/>
<path d="M2375 5121 c-3 -5 -1 -12 5 -16 5 -3 10 1 10 9 0 18 -6 21 -15 7z"/>
<path d="M4161 5084 c0 -11 3 -14 6 -6 3 7 2 16 -1 19 -3 4 -6 -2 -5 -13z"/>
<path d="M2371 5083 c-1 -6 -4 -20 -7 -30 -5 -17 -5 -17 6 0 6 10 9 23 6 30
-3 9 -5 9 -5 0z"/>
<path d="M5480 5014 c-14 -43 -7 -52 44 -61 l38 -6 -26 52 c-15 28 -30 51 -35
51 -5 0 -15 -16 -21 -36z"/>
<path d="M3745 5003 c2 -21 6 -69 10 -108 14 -157 72 -405 132 -564 51 -138
175 -376 233 -448 74 -92 353 -333 385 -333 4 0 -10 24 -31 53 -159 219 -261
390 -380 635 -46 95 -84 174 -84 177 0 2 -13 32 -29 67 -45 97 -137 317 -159
378 -11 30 -30 83 -42 118 -25 70 -40 81 -35 25z"/>
<path d="M2354 5013 c-13 -42 -34 -69 -68 -88 -20 -11 -36 -22 -36 -25 0 -4
17 -12 38 -20 20 -8 40 -16 44 -18 14 -7 30 43 34 104 3 63 -1 81 -12 47z"/>
<path d="M4851 4994 c0 -11 3 -14 6 -6 3 7 2 16 -1 19 -3 4 -6 -2 -5 -13z"/>
<path d="M3906 4984 c-7 -19 28 -104 44 -104 11 0 30 41 30 66 0 18 -36 54
-54 54 -8 0 -17 -7 -20 -16z"/>
<path d="M3658 4918 c5 -7 12 -24 15 -38 4 -22 4 -21 6 6 1 21 -5 34 -15 38
-13 5 -14 3 -6 -6z"/>
<path d="M3610 4905 c0 -5 5 -17 10 -25 5 -8 10 -10 10 -5 0 6 -5 17 -10 25
-5 8 -10 11 -10 5z"/>
<path d="M4803 4838 c4 -11 0 -21 -11 -27 -9 -6 -12 -10 -7 -10 6 0 18 6 28
13 16 13 16 14 0 27 -15 12 -16 12 -10 -3z"/>
<path d="M3590 4836 c0 -2 7 -7 16 -10 8 -3 12 -2 9 4 -6 10 -25 14 -25 6z"/>
<path d="M4592 4797 c-29 -35 -37 -125 -37 -412 1 -277 2 -296 29 -425 26
-131 46 -213 85 -352 10 -37 16 -70 13 -73 -3 -3 -16 -5 -29 -5 -16 0 -27 9
-38 33 -8 17 -13 24 -10 15 2 -10 3 -18 1 -18 -1 0 -31 38 -65 85 -35 47 -65
85 -68 85 -4 0 60 -93 113 -165 l23 -31 -62 -23 c-48 -19 -78 -40 -133 -95
-38 -39 -82 -92 -96 -118 -26 -47 -25 -61 1 -35 9 8 8 0 -3 -27 -19 -45 -19
-49 -6 -41 6 4 10 -8 10 -29 0 -20 4 -36 10 -36 5 0 15 -19 22 -42 6 -24 32
-74 57 -113 49 -78 117 -216 124 -255 4 -24 4 -24 6 -2 0 13 -4 32 -9 43 -10
18 -7 19 37 19 l48 0 29 -61 c16 -33 44 -73 63 -87 18 -15 33 -33 33 -40 0 -9
7 -11 20 -7 14 4 20 2 20 -9 0 -8 5 -18 12 -22 7 -5 8 -3 3 6 -5 8 -1 18 10
27 18 12 18 13 -4 13 -29 0 -80 27 -103 54 -19 23 -58 100 -58 115 0 5 26 17
58 26 79 23 181 78 245 133 50 43 125 141 140 185 10 26 24 13 31 -29 5 -26
11 -34 22 -30 9 3 26 6 38 6 21 0 24 6 30 69 3 38 12 96 20 128 30 122 30 122
1 135 -15 7 -24 17 -21 25 3 8 2 12 -3 8 -5 -3 -12 1 -15 7 -4 7 -4 2 -1 -12
3 -14 8 -41 12 -60 5 -34 5 -34 -11 -15 -17 20 -17 20 -10 -5 4 -14 9 -30 11
-36 2 -7 0 -15 -5 -18 -12 -7 -34 25 -57 87 -10 26 -19 46 -21 44 -4 -3 8 -48
21 -79 12 -30 -39 -23 -53 6 -16 36 -81 105 -114 122 -22 11 -28 21 -28 47 0
40 22 130 44 181 23 51 -1 44 -31 -9 -25 -44 -58 -144 -50 -151 3 -3 13 20 22
51 9 32 18 55 21 52 3 -3 1 -22 -5 -44 -6 -21 -11 -53 -11 -70 0 -38 3 -37
-43 -18 -20 8 -54 15 -75 15 -21 0 -42 3 -46 8 -4 4 -13 7 -19 7 -9 0 -16 71
-24 240 -21 422 -78 1004 -100 1026 -6 6 -14 5 -21 -4z m192 -1359 c10 -41 6
-72 -14 -106 -12 -19 -15 -30 -8 -26 28 18 -31 -63 -62 -83 -36 -25 -104 -31
-117 -10 -29 46 2 121 79 192 67 62 111 74 122 33z m-213 -238 c10 -6 19 -18
19 -28 -1 -16 -1 -16 -11 1 -22 37 -129 8 -129 -35 0 -17 -3 -19 -11 -11 -18
18 14 61 54 72 44 13 55 13 78 1z"/>
<path d="M4686 3370 c-43 -48 -49 -91 -13 -88 18 2 22 7 19 28 -1 14 6 42 16
63 11 20 19 37 17 37 -1 0 -19 -18 -39 -40z"/>
<path d="M4016 4785 c-9 -26 -7 -32 5 -12 6 10 9 21 6 23 -2 3 -7 -2 -11 -11z"/>
<path d="M7870 4790 c0 -17 30 -58 46 -64 15 -6 64 12 64 24 0 7 -86 50 -100
50 -6 0 -10 -5 -10 -10z"/>
<path d="M2140 4780 c-13 -8 -12 -10 3 -10 9 0 17 5 17 10 0 12 -1 12 -20 0z"/>
<path d="M3640 4726 c0 -17 5 -26 16 -26 10 0 14 7 12 22 -5 32 -28 35 -28 4z"/>
<path d="M4670 4734 c0 -8 5 -12 10 -9 6 4 8 11 5 16 -9 14 -15 11 -15 -7z"/>
<path d="M1928 4714 c-19 -10 -29 -26 -34 -50 -12 -66 -9 -577 3 -606 19 -42
152 -103 273 -124 31 -6 -21 19 -97 46 -71 25 -108 53 -139 105 -74 126 -39
589 42 558 19 -7 18 20 -1 57 -9 17 -17 30 -18 29 -1 -1 -14 -8 -29 -15z"/>
<path d="M3985 4710 c-3 -5 -2 -17 3 -26 8 -14 10 -12 10 9 0 29 -3 33 -13 17z"/>
<path d="M2137 4695 c-15 -15 -12 -54 5 -66 4 -3 0 -23 -10 -45 -13 -27 -17
-54 -14 -87 l4 -47 20 25 c29 37 68 140 68 179 0 49 -42 72 -73 41z"/>
<path d="M3153 4669 c-29 -22 -53 -45 -53 -51 0 -11 12 -3 56 37 12 11 32 28
45 37 13 9 20 17 14 17 -5 0 -34 -18 -62 -40z"/>
<path d="M5095 4690 c10 -11 20 -20 23 -20 3 0 -3 9 -13 20 -10 11 -20 20 -23
20 -3 0 3 -9 13 -20z"/>
<path d="M2065 4689 c-4 -6 -5 -12 -2 -15 2 -3 7 2 10 11 7 17 1 20 -8 4z"/>
<path d="M3238 4693 c6 -2 18 -2 25 0 6 3 1 5 -13 5 -14 0 -19 -2 -12 -5z"/>
<path d="M7178 4662 c9 -10 19 -17 21 -15 2 1 17 -27 32 -63 31 -73 51 -99 91
-120 34 -17 89 -18 112 -1 26 19 48 127 26 127 -5 0 -10 -6 -10 -13 0 -23 -58
-77 -83 -77 -29 0 -73 33 -82 60 -4 11 -13 20 -21 20 -8 0 -14 9 -14 21 0 21
-56 79 -77 79 -9 0 -7 -6 5 -18z"/>
<path d="M4000 4655 c0 -5 5 -17 10 -25 5 -8 10 -10 10 -5 0 6 -5 17 -10 25
-5 8 -10 11 -10 5z"/>
<path d="M4242 4640 c0 -14 2 -19 5 -12 2 6 2 18 0 25 -3 6 -5 1 -5 -13z"/>
<path d="M6637 4614 c-26 -25 -47 -49 -47 -53 0 -8 76 2 84 10 9 10 24 79 17
83 -3 2 -28 -16 -54 -40z"/>
<path d="M3168 4643 c7 -3 16 -2 19 1 4 3 -2 6 -13 5 -11 0 -14 -3 -6 -6z"/>
<path d="M3208 4633 c6 -2 18 -2 25 0 6 3 1 5 -13 5 -14 0 -19 -2 -12 -5z"/>
<path d="M3250 4626 c0 -2 7 -7 16 -10 8 -3 12 -2 9 4 -6 10 -25 14 -25 6z"/>
<path d="M3306 4588 c10 -14 21 -24 23 -22 3 3 -6 15 -18 27 l-24 22 19 -27z"/>
<path d="M3341 4574 c0 -11 3 -14 6 -6 3 7 2 16 -1 19 -3 4 -6 -2 -5 -13z"/>
<path d="M5188 4555 c2 -14 6 -25 8 -25 2 0 4 11 4 25 0 14 -4 25 -9 25 -4 0
-6 -11 -3 -25z"/>
<path d="M4250 4565 c0 -5 5 -17 10 -25 5 -8 10 -10 10 -5 0 6 -5 17 -10 25
-5 8 -10 11 -10 5z"/>
<path d="M8234 4528 c15 -43 36 -72 64 -87 32 -17 27 -1 -20 63 -47 63 -61 71
-44 24z"/>
<path d="M3326 4535 c-9 -26 -7 -32 5 -12 6 10 9 21 6 23 -2 3 -7 -2 -11 -11z"/>
<path d="M5675 4528 c-11 -43 -9 -66 9 -107 22 -47 35 -53 96 -43 l45 8 -48
22 c-51 24 -77 64 -77 117 0 31 -18 33 -25 3z"/>
<path d="M1226 4527 c3 -10 9 -15 12 -12 3 3 0 11 -7 18 -10 9 -11 8 -5 -6z"/>
<path d="M1236 4478 c9 -33 69 -142 119 -218 23 -36 61 -95 84 -131 65 -104
68 -105 135 -72 31 15 59 35 62 45 3 10 2 71 -3 136 l-8 117 -6 -90 c-9 -133
-41 -179 -113 -161 -42 10 -159 182 -226 331 -16 36 -34 65 -40 65 -7 0 -9 -9
-4 -22z"/>
<path d="M3560 4490 c0 -5 5 -10 11 -10 5 0 7 5 4 10 -3 6 -8 10 -11 10 -2 0
-4 -4 -4 -10z"/>
<path d="M3710 4480 c-9 -6 -10 -10 -3 -10 6 0 15 5 18 10 8 12 4 12 -15 0z"/>
<path d="M3741 4485 c1 -19 18 -51 18 -35 0 8 -4 22 -9 30 -5 8 -9 11 -9 5z"/>
<path d="M4453 4415 c0 -38 2 -53 4 -32 2 20 2 52 0 70 -2 17 -4 1 -4 -38z"/>
<path d="M3628 4463 c7 -3 16 -2 19 1 4 3 -2 6 -13 5 -11 0 -14 -3 -6 -6z"/>
<path d="M7480 4436 c0 -24 -40 -65 -68 -69 l-27 -4 27 -2 c31 -1 78 42 78 71
0 10 -2 18 -5 18 -3 0 -5 -6 -5 -14z"/>
<path d="M5579 4413 c-13 -16 -12 -17 4 -4 9 7 17 15 17 17 0 8 -8 3 -21 -13z"/>
<path d="M2328 4413 c6 -2 18 -2 25 0 6 3 1 5 -13 5 -14 0 -19 -2 -12 -5z"/>
<path d="M8360 4394 c0 -19 53 -73 80 -82 36 -13 37 -9 8 22 -29 29 -88 70
-88 60z"/>
<path d="M3780 4361 c0 -6 4 -13 10 -16 6 -3 7 1 4 9 -7 18 -14 21 -14 7z"/>
<path d="M5995 4360 c4 -6 14 -10 23 -9 10 1 30 -3 45 -9 33 -14 66 -16 52 -4
-12 10 -86 32 -109 32 -10 0 -14 -5 -11 -10z"/>
<path d="M2348 4353 c7 -3 16 -2 19 1 4 3 -2 6 -13 5 -11 0 -14 -3 -6 -6z"/>
<path d="M2398 4353 c7 -3 16 -2 19 1 4 3 -2 6 -13 5 -11 0 -14 -3 -6 -6z"/>
<path d="M2434 4343 c3 -16 -2 -23 -18 -26 -17 -3 -15 -5 7 -6 29 -1 31 3 16
34 -9 19 -9 19 -5 -2z"/>
<path d="M6360 4344 c-19 -22 -50 -37 -90 -44 l-35 -5 48 -34 c26 -18 54 -30
61 -28 10 4 40 127 31 127 -2 0 -8 -7 -15 -16z"/>
<path d="M7440 4310 c-6 -11 -8 -20 -6 -20 3 0 10 9 16 20 6 11 8 20 6 20 -3
0 -10 -9 -16 -20z"/>
<path d="M3650 4283 c-19 -13 -37 -30 -39 -36 -3 -9 31 12 78 50 2 2 2 5 0 6
-2 2 -20 -7 -39 -20z"/>
<path d="M4452 4285 c0 -16 2 -22 5 -12 2 9 2 23 0 30 -3 6 -5 -1 -5 -18z"/>
<path d="M5664 4293 c-24 -81 -99 -169 -154 -180 -17 -3 -30 -10 -30 -15 0
-13 39 0 74 24 23 17 30 18 37 7 7 -11 9 -10 9 4 0 26 38 77 58 78 9 0 12 3 6
5 -9 4 -8 17 2 49 7 25 11 45 8 45 -2 0 -7 -8 -10 -17z"/>
<path d="M5848 4303 c6 -2 18 -2 25 0 6 3 1 5 -13 5 -14 0 -19 -2 -12 -5z"/>
<path d="M5765 4290 c-14 -7 -8 -8 20 -3 22 3 42 7 44 9 9 8 -45 2 -64 -6z"/>
<path d="M3810 4285 c0 -5 5 -17 10 -25 5 -8 10 -10 10 -5 0 6 -5 17 -10 25
-5 8 -10 11 -10 5z"/>
<path d="M4805 4269 c-4 -6 -5 -12 -2 -15 2 -3 7 2 10 11 7 17 1 20 -8 4z"/>
<path d="M7378 4273 c7 -3 16 -2 19 1 4 3 -2 6 -13 5 -11 0 -14 -3 -6 -6z"/>
<path d="M7816 4252 c-3 -5 1 -9 9 -9 8 0 12 4 9 9 -3 4 -7 8 -9 8 -2 0 -6 -4
-9 -8z"/>
<path d="M1122 4163 c27 -49 56 -95 62 -103 16 -19 26 -42 40 -92 10 -36 -8
-68 -40 -68 -35 0 -78 24 -157 87 -38 30 -70 53 -73 50 -5 -5 79 -88 116 -114
14 -10 45 -29 70 -42 130 -69 139 -71 160 -46 17 21 7 51 -41 125 -23 36 -55
90 -71 120 -39 73 -101 169 -110 170 -3 0 16 -39 44 -87z"/>
<path d="M3483 4233 c9 -2 25 -2 35 0 9 3 1 5 -18 5 -19 0 -27 -2 -17 -5z"/>
<path d="M4890 4214 c0 -9 -9 -30 -21 -47 l-21 -32 26 30 c23 26 35 65 21 65
-3 0 -5 -7 -5 -16z"/>
<path d="M7789 4213 c-13 -16 -12 -17 4 -4 16 13 21 21 13 21 -2 0 -10 -8 -17
-17z"/>
<path d="M7825 4219 c-4 -6 -5 -12 -2 -15 2 -3 7 2 10 11 7 17 1 20 -8 4z"/>
<path d="M3520 4200 c-13 -8 -13 -10 2 -10 9 0 20 5 23 10 8 13 -5 13 -25 0z"/>
<path d="M2196 4182 c-6 -10 23 -43 61 -70 l31 -22 -18 38 c-17 36 -64 70 -74
54z"/>
<path d="M3458 4183 c6 -2 18 -2 25 0 6 3 1 5 -13 5 -14 0 -19 -2 -12 -5z"/>
<path d="M1370 4160 c6 -11 13 -20 16 -20 2 0 0 9 -6 20 -6 11 -13 20 -16 20
-2 0 0 -9 6 -20z"/>
<path d="M5950 4174 c14 -3 40 -9 59 -14 25 -7 31 -6 24 1 -6 6 -33 13 -60 15
-26 1 -37 1 -23 -2z"/>
<path d="M7729 4153 c-13 -16 -12 -17 4 -4 9 7 17 15 17 17 0 8 -8 3 -21 -13z"/>
<path d="M4772 4144 c9 -9 21 -15 27 -13 6 2 -2 10 -17 17 -25 11 -25 11 -10
-4z"/>
<path d="M3453 4143 c9 -2 25 -2 35 0 9 3 1 5 -18 5 -19 0 -27 -2 -17 -5z"/>
<path d="M6100 4140 c-9 -6 -10 -10 -3 -10 6 0 15 5 18 10 8 12 4 12 -15 0z"/>
<path d="M1400 4116 c0 -8 29 -54 50 -79 8 -10 15 -22 15 -27 0 -5 9 -16 20
-24 12 -9 15 -15 7 -16 -7 0 4 -20 25 -45 47 -57 80 -60 129 -11 31 31 34 39
33 88 -1 32 -4 41 -6 23 -9 -66 -24 -104 -43 -110 -40 -13 -117 49 -188 149
-23 33 -42 56 -42 52z"/>
<path d="M6175 4095 c11 -9 29 -21 40 -26 l20 -10 -20 16 c-11 9 -29 21 -40
26 l-20 10 20 -16z"/>
<path d="M7370 4106 c0 -2 8 -10 18 -17 15 -13 16 -12 3 4 -13 16 -21 21 -21
13z"/>
<path d="M2405 4081 c19 -22 55 -46 55 -38 0 3 -17 17 -37 33 -31 23 -34 24
-18 5z"/>
<path d="M6500 4086 c0 -2 7 -7 16 -10 8 -3 12 -2 9 4 -6 10 -25 14 -25 6z"/>
<path d="M5610 4077 c0 -16 23 -52 47 -70 13 -10 20 -23 17 -29 -5 -7 -2 -8 5
-3 9 5 5 16 -17 39 -16 17 -34 40 -40 51 -6 11 -12 16 -12 12z"/>
<path d="M6361 4050 c29 -45 29 -45 29 -34 0 5 -12 23 -26 39 l-26 30 23 -35z"/>
<path d="M4830 4059 c0 -5 5 -7 10 -4 6 3 10 8 10 11 0 2 -4 4 -10 4 -5 0 -10
-5 -10 -11z"/>
<path d="M6752 4040 c0 -19 2 -27 5 -17 2 9 2 25 0 35 -3 9 -5 1 -5 -18z"/>
<path d="M5450 3990 c-26 -71 -77 -120 -148 -144 -83 -29 -204 -15 -252 29
-13 11 -20 13 -25 5 -8 -14 20 -47 57 -66 31 -16 148 -19 148 -4 0 6 5 10 12
10 17 0 -18 -35 -57 -56 -19 -10 -35 -22 -35 -27 0 -4 4 -6 9 -3 5 4 12 0 14
-6 3 -8 6 -6 6 4 1 10 18 26 40 37 21 11 41 27 44 35 3 8 27 24 54 36 65 29
117 82 144 147 12 29 19 56 17 59 -3 2 -16 -23 -28 -56z m-309 -165 c62 -13
63 -13 21 -14 -52 -1 -108 23 -124 53 -10 20 -10 20 14 -2 15 -13 52 -28 89
-37z"/>
<path d="M4753 4023 c9 -2 23 -2 30 0 6 3 -1 5 -18 5 -16 0 -22 -2 -12 -5z"/>
<path d="M6300 3995 c19 -19 36 -35 39 -35 3 0 -10 16 -29 35 -19 19 -36 35
-39 35 -3 0 10 -16 29 -35z"/>
<path d="M6300 4026 c0 -2 8 -10 18 -17 15 -13 16 -12 3 4 -13 16 -21 21 -21
13z"/>
<path d="M6910 4020 c0 -5 5 -10 11 -10 5 0 7 5 4 10 -3 6 -8 10 -11 10 -2 0
-4 -4 -4 -10z"/>
<path d="M8610 3986 c0 -49 24 -76 67 -76 22 0 21 2 -15 60 -20 32 -40 59 -44
60 -5 0 -8 -20 -8 -44z"/>
<path d="M7618 4013 c7 -3 16 -2 19 1 4 3 -2 6 -13 5 -11 0 -14 -3 -6 -6z"/>
<path d="M2962 3990 c0 -14 2 -19 5 -12 2 6 2 18 0 25 -3 6 -5 1 -5 -13z"/>
<path d="M3473 4003 c9 -2 25 -2 35 0 9 3 1 5 -18 5 -19 0 -27 -2 -17 -5z"/>
<path d="M3553 4003 c9 -2 23 -2 30 0 6 3 -1 5 -18 5 -16 0 -22 -2 -12 -5z"/>
<path d="M3611 3997 c2 -2 18 -11 34 -21 l30 -17 -24 20 c-13 12 -28 21 -34
21 -6 0 -8 -1 -6 -3z"/>
<path d="M6396 3987 c3 -10 9 -15 12 -12 3 3 0 11 -7 18 -10 9 -11 8 -5 -6z"/>
<path d="M3385 3980 c-3 -6 1 -7 9 -4 18 7 21 14 7 14 -6 0 -13 -4 -16 -10z"/>
<path d="M3831 3974 c0 -11 3 -14 6 -6 3 7 2 16 -1 19 -3 4 -6 -2 -5 -13z"/>
<path d="M1881 3962 c-1 -23 82 -219 126 -299 13 -23 23 -44 23 -46 0 -2 -49
-24 -110 -48 -60 -24 -120 -52 -132 -62 -23 -18 -23 -18 8 -3 17 8 65 24 105
36 69 19 84 19 229 9 85 -6 180 -9 210 -7 39 3 28 5 -38 6 -95 2 -134 14 -205
65 -45 31 -180 258 -208 347 -7 24 -7 24 -8 2z"/>
<path d="M2490 3948 c0 -7 16 -26 36 -41 39 -32 44 -69 10 -75 -19 -4 -92 15
-111 29 -19 14 -206 71 -212 65 -6 -6 81 -46 101 -46 7 0 16 -4 22 -9 5 -5 41
-20 79 -34 39 -14 104 -41 145 -60 42 -20 88 -39 104 -43 26 -6 28 -5 22 12
-17 44 -102 177 -124 195 -28 21 -72 26 -72 7z"/>
<path d="M4380 3952 c0 -36 48 -98 95 -123 11 -5 2 5 -19 23 -21 18 -47 50
-57 73 -10 22 -19 34 -19 27z"/>
<path d="M3680 3946 c0 -2 8 -10 18 -17 15 -13 16 -12 3 4 -13 16 -21 21 -21
13z"/>
<path d="M6360 3926 c0 -2 8 -10 18 -17 15 -13 16 -12 3 4 -13 16 -21 21 -21
13z"/>
<path d="M3820 3898 c1 -50 22 -113 56 -164 41 -62 102 -124 123 -124 8 0 -4
13 -26 29 -70 51 -135 169 -135 247 0 19 -4 34 -9 34 -5 0 -9 -10 -9 -22z"/>
<path d="M6515 3910 c-3 -6 1 -7 9 -4 18 7 21 14 7 14 -6 0 -13 -4 -16 -10z"/>
<path d="M6893 3890 c-11 -16 -10 -18 2 -14 8 4 15 12 15 20 0 19 -3 18 -17
-6z"/>
<path d="M5605 3848 l-40 -43 43 40 c39 36 47 45 39 45 -2 0 -21 -19 -42 -42z"/>
<path d="M7091 3874 c0 -11 3 -14 6 -6 3 7 2 16 -1 19 -3 4 -6 -2 -5 -13z"/>
<path d="M3613 3838 c-57 -15 -134 -110 -110 -135 4 -3 27 9 53 26 32 21 60
31 84 31 42 0 65 20 56 48 -9 27 -45 40 -83 30z"/>
<path d="M4526 3825 c8 -37 14 -45 14 -19 0 10 -5 26 -10 34 -8 11 -9 7 -4
-15z"/>
<path d="M6570 3828 c0 -4 4 -8 9 -8 6 0 12 4 15 8 3 5 -1 9 -9 9 -8 0 -15 -4
-15 -9z"/>
<path d="M1157 3818 c11 -13 113 -68 127 -68 3 0 3 6 0 14 -5 13 -46 35 -75
40 -8 1 -25 8 -39 16 -22 12 -24 11 -13 -2z"/>
<path d="M5631 3807 c-13 -21 -12 -21 5 -5 10 10 16 20 13 22 -3 3 -11 -5 -18
-17z"/>
<path d="M4967 3767 c-15 -30 -46 -72 -67 -95 -42 -43 -55 -68 -19 -36 38 34
106 128 113 157 3 15 5 27 4 27 -2 0 -16 -24 -31 -53z"/>
<path d="M6510 3788 c-16 -27 -29 -63 -17 -47 15 19 47 79 43 79 -4 0 -15 -15
-26 -32z"/>
<path d="M4798 3791 l-48 -16 2 -110 2 -110 3 106 4 106 39 12 c21 6 42 16 45
21 3 6 5 9 3 9 -2 -1 -24 -9 -50 -18z"/>
<path d="M6194 3778 l-19 -23 23 19 c12 11 22 21 22 23 0 8 -8 2 -26 -19z"/>
<path d="M1350 3774 c0 -12 -7 -15 -25 -12 -27 6 -29 3 -26 -57 1 -22 -2 -53
-8 -68 -8 -20 -8 -26 0 -21 22 13 82 174 65 174 -3 0 -6 -7 -6 -16z"/>
<path d="M7091 3774 c0 -11 3 -14 6 -6 3 7 2 16 -1 19 -3 4 -6 -2 -5 -13z"/>
<path d="M6750 3765 c0 -8 4 -15 10 -15 5 0 7 7 4 15 -4 8 -8 15 -10 15 -2 0
-4 -7 -4 -15z"/>
<path d="M5242 3740 c0 -19 2 -27 5 -17 2 9 2 25 0 35 -3 9 -5 1 -5 -18z"/>
<path d="M3930 3756 c0 -2 8 -10 18 -17 15 -13 16 -12 3 4 -13 16 -21 21 -21
13z"/>
<path d="M4990 3751 c0 -10 90 -35 97 -27 3 3 -11 8 -31 11 -20 4 -39 11 -42
16 -7 12 -24 12 -24 0z"/>
<path d="M5463 3748 c-15 -20 -25 -38 -20 -38 3 0 12 11 21 25 17 26 16 35 -1
13z"/>
<path d="M5500 3697 c-52 -110 -81 -193 -101 -287 -5 -25 -12 -53 -15 -62 -3
-10 -1 -18 5 -18 6 0 11 8 11 18 0 26 45 171 64 207 9 17 16 36 16 42 0 7 12
42 26 78 32 80 28 93 -6 22z"/>
<path d="M6042 3723 c-26 -38 -34 -53 -29 -53 2 0 16 18 31 40 29 45 28 56 -2
13z"/>
<path d="M6149 3728 c-7 -13 -16 -26 -22 -29 -5 -4 -8 -12 -5 -19 2 -6 15 7
30 29 15 23 23 41 18 41 -5 0 -15 -10 -21 -22z"/>
<path d="M1724 3638 c-38 -57 -98 -139 -133 -183 l-64 -79 86 78 c74 68 93 92
129 165 47 94 59 121 54 121 -1 0 -34 -46 -72 -102z"/>
<path d="M5109 3731 c11 -7 11 -17 -2 -62 -23 -82 -31 -139 -18 -139 6 0 11
17 11 38 0 20 9 66 20 102 11 36 20 66 20 68 0 1 -10 2 -22 2 -17 0 -19 -3 -9
-9z"/>
<path d="M8670 3726 c0 -35 34 -163 47 -176 13 -13 16 -13 29 4 19 27 18 106
-3 136 -31 46 -73 66 -73 36z"/>
<path d="M4010 3706 c0 -2 7 -7 16 -10 8 -3 12 -2 9 4 -6 10 -25 14 -25 6z"/>
<path d="M4561 3705 c1 -19 18 -51 18 -35 0 8 -4 22 -9 30 -5 8 -9 11 -9 5z"/>
<path d="M6282 3688 c-5 -7 -17 -29 -26 -48 -14 -29 -14 -31 -1 -16 8 11 15
25 15 30 1 16 40 -34 40 -51 0 -8 -4 -11 -10 -8 -5 3 -10 1 -10 -6 0 -10 -3
-10 -12 -1 -34 34 -62 -5 -103 -145 -29 -99 -40 -361 -17 -423 4 -10 5 36 3
103 -4 134 16 261 50 317 13 20 40 41 74 56 l55 25 30 -21 c22 -16 30 -30 31
-53 1 -30 2 -29 8 8 8 46 27 85 41 85 6 0 9 3 9 8 -3 19 2 26 10 13 5 -7 14
-10 21 -6 9 6 9 10 -1 16 -25 17 75 -3 106 -20 17 -9 45 -38 63 -65 17 -27 32
-45 32 -41 0 14 -44 85 -52 85 -5 0 -7 4 -4 9 3 5 -13 29 -37 53 -23 24 -30
30 -14 13 15 -17 27 -34 27 -37 0 -4 -20 2 -46 13 -39 18 -52 19 -97 9 -28 -6
-62 -18 -75 -26 -31 -20 -46 -6 -46 43 0 20 -2 30 -4 24 -2 -7 -13 5 -23 28
-20 45 -22 47 -37 29z m28 -28 c13 -24 12 -24 -6 -10 -10 8 -21 15 -23 17 -1
1 0 7 4 13 8 13 8 13 25 -20z m-45 -80 c3 -6 -1 -7 -9 -4 -18 7 -21 14 -7 14
6 0 13 -4 16 -10z m175 -15 c-7 -8 -20 -15 -29 -15 -11 1 -8 5 9 15 32 18 35
18 20 0z"/>
<path d="M7045 3680 c-16 -17 -16 -20 -3 -15 9 4 19 13 22 21 7 19 2 18 -19
-6z"/>
<path d="M5681 3618 c-23 -40 -53 -106 -68 -145 -15 -40 -31 -73 -36 -73 -5 0
-7 33 -4 73 4 46 3 61 -2 42 -5 -16 -9 -51 -10 -77 -1 -41 -3 -46 -18 -41 -17
7 -17 6 0 -11 9 -9 18 -27 18 -39 1 -17 3 -15 9 8 5 18 6 1 3 -44 -4 -55 -3
-72 6 -67 6 4 9 11 6 16 -15 24 63 270 86 270 4 0 11 14 14 32 4 18 16 52 27
77 30 70 13 59 -31 -21z"/>
<path d="M8806 3670 c3 -14 10 -32 15 -40 7 -13 8 -13 8 0 0 8 -6 26 -15 40
l-15 25 7 -25z"/>
<path d="M5250 3649 c0 -19 4 -41 9 -48 6 -10 8 1 4 30 -7 55 -13 63 -13 18z"/>
<path d="M1014 3648 c74 -50 114 -112 99 -156 -5 -15 -4 -15 10 -2 8 8 18 39
22 68 l7 52 -44 19 c-23 10 -59 22 -78 25 -31 6 -33 5 -16 -6z"/>
<path d="M5413 3645 c-3 -9 -3 -18 -1 -21 3 -3 8 4 11 16 6 23 -1 27 -10 5z"/>
<path d="M1208 3620 c33 -23 42 -37 45 -67 4 -34 4 -33 3 7 -1 39 -5 47 -35
67 -50 34 -61 28 -13 -7z"/>
<path d="M3573 3634 c-10 -28 11 -49 51 -50 20 -1 39 3 43 9 4 6 1 7 -7 2 -10
-6 -12 -4 -7 8 4 11 -2 22 -16 32 -28 20 -56 19 -64 -1z"/>
<path d="M6978 3643 c7 -3 16 -2 19 1 4 3 -2 6 -13 5 -11 0 -14 -3 -6 -6z"/>
<path d="M3060 3631 c0 -6 4 -13 10 -16 6 -3 7 1 4 9 -7 18 -14 21 -14 7z"/>
<path d="M4108 3633 c7 -3 16 -2 19 1 4 3 -2 6 -13 5 -11 0 -14 -3 -6 -6z"/>
<path d="M4215 3630 c-3 -6 1 -7 9 -4 18 7 21 14 7 14 -6 0 -13 -4 -16 -10z"/>
<path d="M4260 3631 c0 -5 9 -11 21 -14 16 -4 18 -3 8 9 -13 16 -29 19 -29 5z"/>
<path d="M5596 3625 c-9 -26 -7 -32 5 -12 6 10 9 21 6 23 -2 3 -7 -2 -11 -11z"/>
<path d="M6466 3631 c-4 -5 3 -7 14 -4 23 6 26 13 6 13 -8 0 -17 -4 -20 -9z"/>
<path d="M5737 3568 c-42 -102 -59 -159 -64 -223 -6 -69 2 -73 10 -5 7 49 29
127 46 156 12 22 42 127 37 131 -2 2 -15 -25 -29 -59z"/>
<path d="M6746 3615 c-9 -26 -7 -32 5 -12 6 10 9 21 6 23 -2 3 -7 -2 -11 -11z"/>
<path d="M3382 3591 c-45 -29 -46 -41 -1 -41 15 0 31 -4 34 -10 3 -5 15 -10
26 -10 16 0 19 7 19 45 0 54 -14 57 -78 16z"/>
<path d="M5162 3590 c0 -19 2 -27 5 -17 2 9 2 25 0 35 -3 9 -5 1 -5 -18z"/>
<path d="M5541 3604 c0 -11 3 -14 6 -6 3 7 2 16 -1 19 -3 4 -6 -2 -5 -13z"/>
<path d="M5943 3518 c-36 -94 -52 -145 -68 -220 -3 -16 -11 -27 -18 -25 -7 1
-10 -5 -7 -13 2 -8 6 -49 8 -90 3 -67 2 -73 -11 -55 -8 11 -18 35 -22 53 -3
17 -11 32 -17 32 -5 0 -7 14 -4 33 5 24 4 27 -3 12 -8 -17 -10 -15 -10 13 -1
20 3 31 9 27 6 -3 10 -1 10 4 0 6 -6 11 -12 11 -10 0 -10 2 0 9 10 6 10 10 -2
20 -11 9 -13 26 -9 67 4 37 2 54 -6 54 -6 0 -11 -15 -12 -32 0 -18 -4 -42 -8
-53 -6 -14 -3 -24 8 -33 14 -12 14 -13 -1 -8 -16 5 -18 -2 -17 -52 l1 -57 11
45 10 45 8 -46 c4 -25 14 -60 23 -77 21 -41 5 -41 -29 -1 -14 17 -29 29 -32
25 -3 -3 -13 0 -21 7 -9 6 5 -13 30 -45 25 -31 52 -73 59 -95 l13 -38 6 30 7
30 12 -29 c6 -16 13 -27 15 -25 2 2 7 49 10 104 8 115 17 160 51 265 38 115
64 204 61 208 -2 2 -21 -43 -43 -100z"/>
<path d="M5841 3584 c0 -11 3 -14 6 -6 3 7 2 16 -1 19 -3 4 -6 -2 -5 -13z"/>
<path d="M5260 3568 c0 -9 5 -20 10 -23 13 -8 13 5 0 25 -8 13 -10 13 -10 -2z"/>
<path d="M8521 3564 c0 -11 3 -14 6 -6 3 7 2 16 -1 19 -3 4 -6 -2 -5 -13z"/>
<path d="M2420 3560 c-24 -8 -24 -8 7 -9 17 -1 35 4 38 9 7 11 -9 11 -45 0z"/>
<path d="M5386 3544 c-4 -14 -5 -28 -3 -31 3 -2 8 8 11 23 4 14 5 28 3 31 -3
2 -8 -8 -11 -23z"/>
<path d="M5518 3520 c-9 -30 -20 -70 -23 -89 -4 -18 -10 -29 -14 -24 -3 5 -16
4 -31 -4 -25 -12 -25 -13 -2 -13 16 0 22 -6 23 -22 1 -22 1 -22 9 2 6 17 8 5
7 -42 -1 -36 -5 -64 -9 -61 -13 7 -9 -12 5 -26 10 -11 7 -13 -15 -9 -15 3 -25
1 -22 -3 3 -5 -4 -9 -15 -9 -12 0 -21 -4 -21 -10 0 -12 -57 -14 -63 -2 -2 4 4
45 14 92 10 47 18 99 18 115 0 29 -1 29 -18 -11 -22 -48 -47 -155 -56 -241 -6
-55 -10 -63 -28 -64 -22 0 -22 0 1 -11 17 -8 22 -19 21 -42 -2 -37 7 -105 27
-204 8 -40 12 -78 8 -84 -4 -6 -3 -8 4 -4 11 7 45 -91 36 -106 -3 -4 0 -8 5
-8 6 0 11 -5 11 -11 0 -15 69 -157 80 -164 4 -3 -2 16 -14 42 -41 86 -85 207
-105 288 -24 100 -36 209 -21 200 6 -4 10 6 10 25 0 39 21 90 48 113 18 17 18
14 -4 -29 -27 -54 -31 -127 -10 -187 13 -35 13 -37 -5 -32 -10 4 -19 4 -19 0
0 -12 126 -64 170 -70 38 -5 41 -4 20 5 l-25 11 31 14 c29 12 58 43 99 107
l17 27 -36 -6 c-31 -5 -37 -2 -48 22 -27 59 44 113 84 63 l19 -23 -4 59 -4 59
28 -31 c16 -17 36 -58 46 -89 l17 -58 7 50 c4 33 2 59 -7 75 -32 63 -135 129
-202 130 -47 0 -70 15 -66 42 12 90 27 167 35 189 6 14 9 46 7 70 l-3 44 -17
-55z m-148 -340 c0 -4 -7 -13 -15 -20 -13 -11 -15 -8 -15 13 0 19 4 25 15 21
8 -4 15 -10 15 -14z m83 -208 c-3 -28 -1 -29 35 -28 23 1 44 8 55 20 13 14 20
17 28 9 13 -13 4 -33 -16 -33 -7 0 -16 -7 -19 -16 -4 -9 -9 -14 -12 -11 -4 3
-13 0 -20 -8 -8 -7 -23 -11 -33 -8 -25 6 -61 65 -61 98 0 21 3 23 23 16 17 -7
21 -16 20 -39z"/>
<path d="M2498 3553 c6 -2 18 -2 25 0 6 3 1 5 -13 5 -14 0 -19 -2 -12 -5z"/>
<path d="M3285 3553 c-135 -13 -140 -20 -67 -91 76 -75 216 -161 288 -176 36
-8 60 13 70 60 5 26 1 35 -26 57 -40 35 -47 34 -47 -4 0 -78 -102 -67 -195 21
-45 43 -48 67 -12 105 29 31 29 31 -11 28z"/>
<path d="M6110 3503 c-36 -96 -51 -164 -55 -248 -5 -88 -2 -83 22 49 9 50 22
101 30 115 7 15 13 35 13 47 0 12 5 35 11 53 20 58 1 44 -21 -16z"/>
<path d="M6812 3525 c0 -16 2 -22 5 -12 2 9 2 23 0 30 -3 6 -5 -1 -5 -18z"/>
<path d="M3764 3525 c-10 -8 -14 -14 -9 -14 6 0 19 6 29 14 11 8 15 15 10 15
-6 0 -19 -7 -30 -15z"/>
<path d="M5172 3520 c0 -14 2 -19 5 -12 2 6 2 18 0 25 -3 6 -5 1 -5 -13z"/>
<path d="M5482 3510 c0 -14 2 -19 5 -12 2 6 2 18 0 25 -3 6 -5 1 -5 -13z"/>
<path d="M5821 3514 c0 -11 3 -14 6 -6 3 7 2 16 -1 19 -3 4 -6 -2 -5 -13z"/>
<path d="M3693 3513 c9 -2 25 -2 35 0 9 3 1 5 -18 5 -19 0 -27 -2 -17 -5z"/>
<path d="M3703 3474 c-18 -13 -42 -39 -54 -57 -16 -23 -6 -16 34 23 52 50 62
60 55 60 -2 0 -17 -12 -35 -26z"/>
<path d="M6012 3396 c-45 -114 -63 -198 -61 -291 l2 -60 8 75 c11 98 38 209
58 239 14 22 43 131 36 139 -1 1 -21 -45 -43 -102z"/>
<path d="M8511 3484 c0 -11 3 -14 6 -6 3 7 2 16 -1 19 -3 4 -6 -2 -5 -13z"/>
<path d="M5812 3470 c0 -14 2 -19 5 -12 2 6 2 18 0 25 -3 6 -5 1 -5 -13z"/>
<path d="M6955 3470 c10 -11 20 -20 23 -20 3 0 -3 9 -13 20 -10 11 -20 20 -23
20 -3 0 3 -9 13 -20z"/>
<path d="M8795 3467 c-13 -21 -16 -37 -11 -72 7 -42 25 -72 27 -43 0 7 4 34 8
59 4 25 4 54 1 65 -6 16 -8 16 -25 -9z"/>
<path d="M2748 3445 c2 -18 -2 -43 -9 -56 -11 -22 -11 -23 4 -10 18 14 24 85
9 95 -4 2 -6 -10 -4 -29z"/>
<path d="M1215 3445 c-8 -14 -22 -37 -31 -51 -9 -15 -11 -24 -6 -20 6 3 22 26
35 51 27 47 28 63 2 20z"/>
<path d="M6810 3461 c0 -6 4 -13 10 -16 6 -3 7 1 4 9 -7 18 -14 21 -14 7z"/>
<path d="M3570 3441 c8 -6 28 -11 44 -11 39 0 31 6 -19 14 -29 5 -36 4 -25 -3z"/>
<path d="M1100 3403 c-7 -21 -22 -54 -35 -74 -22 -35 -82 -99 -91 -99 -10 0
-36 -31 -31 -36 9 -9 79 41 124 87 45 48 63 84 63 130 0 41 -16 36 -30 -8z"/>
<path d="M5802 3400 c0 -19 2 -27 5 -17 2 9 2 25 0 35 -3 9 -5 1 -5 -18z"/>
<path d="M6841 3413 c7 -12 15 -20 18 -17 3 2 -3 12 -13 22 -17 16 -18 16 -5
-5z"/>
<path d="M8460 3360 c-6 -11 -8 -20 -6 -20 3 0 10 9 16 20 6 11 8 20 6 20 -3
0 -10 -9 -16 -20z"/>
<path d="M1479 3333 l-34 -38 38 34 c20 19 37 36 37 38 0 8 -8 0 -41 -34z"/>
<path d="M1295 3303 c-4 -32 -12 -65 -18 -73 -7 -8 -2 -7 10 4 17 14 26 16 36
8 11 -9 12 -1 7 43 -9 81 -26 90 -35 18z"/>
<path d="M2178 3353 c-10 -2 -46 -33 -82 -67 -93 -91 -154 -102 -370 -65 -55
10 -60 9 -85 -14 -14 -14 -45 -35 -68 -47 -49 -25 -83 -21 -138 15 -19 14 -35
20 -35 14 0 -5 25 -21 55 -35 64 -30 97 -27 210 14 64 23 82 26 197 23 152 -3
180 6 280 98 l67 61 118 -25 c123 -26 184 -30 218 -14 14 6 7 7 -23 3 -39 -5
-112 6 -172 26 -31 11 -149 20 -172 13z"/>
<path d="M6031 3324 c0 -11 3 -14 6 -6 3 7 2 16 -1 19 -3 4 -6 -2 -5 -13z"/>
<path d="M8419 3313 c-13 -16 -12 -17 4 -4 9 7 17 15 17 17 0 8 -8 3 -21 -13z"/>
<path d="M6813 3275 c0 -27 2 -38 4 -22 2 15 2 37 0 50 -2 12 -4 0 -4 -28z"/>
<path d="M6980 3300 c8 -5 24 -10 34 -10 26 0 18 6 -19 14 -22 5 -26 4 -15 -4z"/>
<path d="M7511 3295 c-1 -11 -4 -31 -6 -45 l-6 -25 11 25 c6 13 9 33 7 45 -4
19 -4 19 -6 0z"/>
<path d="M6707 3293 c-4 -3 -7 -15 -7 -25 0 -11 -14 -33 -30 -50 -26 -25 -36
-29 -63 -24 -23 4 -28 3 -17 -4 23 -15 61 -12 82 7 16 14 18 14 13 1 -7 -19
-43 -36 -70 -33 -30 2 -81 32 -128 73 -41 37 -41 37 -19 6 22 -32 69 -77 111
-106 17 -12 23 -29 28 -81 3 -38 1 -78 -5 -96 -7 -18 -7 -29 -2 -26 6 4 10 11
10 16 0 6 9 28 20 51 11 22 17 44 14 49 -2 4 7 16 21 25 14 9 25 23 25 30 0 8
5 14 10 14 6 0 11 -17 12 -37 2 -56 3 -61 11 -69 4 -4 4 22 0 57 -5 35 -8 101
-8 147 0 45 0 82 -1 82 0 0 -4 -3 -7 -7z m-9 -138 c-1 -13 -8 -27 -15 -29 -7
-3 -10 1 -7 10 2 7 6 21 9 29 7 24 15 18 13 -10z"/>
<path d="M7078 3293 c7 -3 16 -2 19 1 4 3 -2 6 -13 5 -11 0 -14 -3 -6 -6z"/>
<path d="M3472 3185 c21 -22 39 -37 41 -34 2 2 -15 19 -37 38 l-41 35 37 -39z"/>
<path d="M3562 3180 c0 -19 2 -27 5 -17 2 9 2 25 0 35 -3 9 -5 1 -5 -18z"/>
<path d="M6925 3170 c9 -16 18 -30 21 -30 2 0 -2 14 -11 30 -9 17 -18 30 -21
30 -2 0 2 -13 11 -30z"/>
<path d="M916 3173 c-6 -14 -5 -15 5 -6 7 7 10 15 7 18 -3 3 -9 -2 -12 -12z"/>
<path d="M6043 3105 c0 -38 2 -53 4 -32 2 20 2 52 0 70 -2 17 -4 1 -4 -38z"/>
<path d="M7559 3133 c-13 -16 -12 -17 4 -4 16 13 21 21 13 21 -2 0 -10 -8 -17
-17z"/>
<path d="M7862 3130 c0 -14 2 -19 5 -12 2 6 2 18 0 25 -3 6 -5 1 -5 -13z"/>
<path d="M1175 3093 c-35 -44 -36 -46 -6 -18 29 26 58 65 48 65 -1 0 -20 -21
-42 -47z"/>
<path d="M6990 3070 c11 -16 26 -33 32 -36 7 -4 -1 9 -16 29 -34 44 -46 50
-16 7z"/>
<path d="M7623 3088 c-24 -39 -51 -110 -47 -123 4 -8 17 -18 30 -21 28 -7 29
-10 9 -30 -8 -9 -15 -33 -15 -55 0 -32 4 -41 25 -51 21 -9 29 -8 46 8 32 28
50 80 50 138 0 64 -12 98 -47 125 -31 24 -40 26 -51 9z"/>
<path d="M8052 3055 c0 -16 2 -22 5 -12 2 9 2 23 0 30 -3 6 -5 -1 -5 -18z"/>
<path d="M7350 3060 c-9 -6 -10 -10 -3 -10 6 0 15 5 18 10 8 12 4 12 -15 0z"/>
<path d="M7873 3020 c0 -25 2 -35 4 -22 2 12 2 32 0 45 -2 12 -4 2 -4 -23z"/>
<path d="M6807 2955 c5 -78 35 -199 52 -209 4 -3 -1 20 -11 50 -10 31 -25 97
-33 147 l-14 92 6 -80z"/>
<path d="M6930 2976 c30 -31 64 -62 75 -68 11 -6 18 -9 15 -6 -3 2 -36 33 -75
68 l-70 64 55 -58z"/>
<path d="M7506 3015 c-3 -9 -6 -22 -5 -28 0 -7 5 -1 10 12 5 13 8 26 5 28 -2
2 -6 -3 -10 -12z"/>
<path d="M8419 3013 c-13 -16 -12 -17 4 -4 9 7 17 15 17 17 0 8 -8 3 -21 -13z"/>
<path d="M8705 3000 c-43 -45 -84 -60 -143 -53 -49 5 -51 5 -58 -22 -11 -43 2
-150 22 -184 23 -39 81 -60 118 -43 13 6 28 24 34 41 11 31 5 40 -15 20 -21
-21 -103 40 -103 78 0 7 12 19 28 27 15 8 38 24 51 35 14 12 36 24 50 27 49
11 51 13 51 59 0 25 -1 45 -3 45 -2 0 -16 -13 -32 -30z"/>
<path d="M6258 3013 c12 -2 30 -2 40 0 9 3 -1 5 -23 4 -22 0 -30 -2 -17 -4z"/>
<path d="M3670 2993 c0 -2 75 -79 168 -171 160 -161 148 -142 -25 38 -45 46
-81 86 -79 87 1 1 50 -19 109 -45 104 -46 109 -50 135 -99 15 -29 37 -64 50
-80 l23 -28 -21 35 c-11 19 -33 58 -47 87 -24 46 -33 55 -82 74 -31 13 -95 41
-143 64 -49 23 -88 40 -88 38z"/>
<path d="M1051 2971 l-34 -18 67 -13 c37 -7 69 -10 72 -8 8 9 -37 58 -54 58
-9 -1 -32 -9 -51 -19z"/>
<path d="M8390 2975 c-7 -9 -11 -17 -9 -20 3 -2 10 5 17 15 14 24 10 26 -8 5z"/>
<path d="M7100 2956 c0 -2 8 -10 18 -17 15 -13 16 -12 3 4 -13 16 -21 21 -21
13z"/>
<path d="M7781 2944 c0 -11 3 -14 6 -6 3 7 2 16 -1 19 -3 4 -6 -2 -5 -13z"/>
<path d="M5192 2920 c0 -14 2 -19 5 -12 2 6 2 18 0 25 -3 6 -5 1 -5 -13z"/>
<path d="M6156 2915 l-16 -25 32 5 33 5 -35 -16 c-45 -21 -120 -75 -120 -87 0
-5 6 -7 14 -4 9 4 5 -8 -10 -30 -28 -42 -48 -107 -41 -140 2 -13 0 -23 -4 -23
-5 0 -9 -5 -9 -11 0 -5 30 -24 66 -41 49 -23 68 -28 77 -19 8 8 7 11 -6 11 -9
0 -17 5 -17 10 0 6 7 10 16 10 16 0 124 97 124 112 0 5 -4 7 -9 4 -13 -9 -39
3 -45 21 -9 22 20 63 44 63 11 0 25 -10 31 -22 12 -22 12 -22 20 -3 4 11 8 39
8 63 1 48 16 49 26 1 10 -45 -11 -109 -56 -168 l-39 -51 40 20 c47 24 46 24
54 5 3 -10 -10 -36 -35 -68 -23 -29 -57 -77 -76 -107 -76 -119 -106 -152 -168
-181 -33 -16 -53 -29 -45 -29 8 0 38 11 65 24 52 24 80 54 151 164 23 35 54
72 68 82 59 38 143 129 156 170 7 22 28 63 46 90 46 69 51 81 18 40 -63 -77
-107 -119 -118 -113 -6 3 -8 3 -4 -2 8 -9 -28 -65 -43 -65 -5 0 -9 7 -9 15 0
8 5 15 11 15 5 0 8 4 4 9 -8 15 16 61 29 54 6 -4 5 0 -2 9 -16 20 -5 49 16 41
10 -4 8 1 -6 15 -27 27 -28 42 -4 42 11 1 7 6 -13 17 -27 15 -28 17 -10 24 18
7 18 8 -4 8 -14 1 -32 8 -42 17 -10 9 -39 19 -64 21 -59 7 -58 23 3 24 62 1
27 17 -39 18 -39 1 -49 -3 -63 -24z m-60 -240 c-8 -30 13 -33 56 -11 15 8 30
11 33 6 8 -14 -89 -59 -106 -49 -8 4 -16 24 -17 43 -2 31 0 36 19 36 18 0 20
-4 15 -25z m343 -14 c-11 -31 -129 -154 -139 -145 -3 3 12 21 32 40 21 19 37
37 37 40 -2 7 69 94 76 94 2 0 -1 -13 -6 -29z"/>
<path d="M7861 2924 c0 -11 3 -14 6 -6 3 7 2 16 -1 19 -3 4 -6 -2 -5 -13z"/>
<path d="M7035 2890 c3 -6 -4 -11 -17 -11 -16 -1 -18 -3 -6 -6 10 -2 25 0 34
5 15 8 15 10 0 15 -10 4 -15 3 -11 -3z"/>
<path d="M7225 2884 c22 -8 69 -17 105 -20 56 -4 68 -2 90 16 14 12 19 19 11
15 -37 -20 -88 -23 -158 -9 -91 17 -99 17 -48 -2z"/>
<path d="M7318 2893 c6 -2 18 -2 25 0 6 3 1 5 -13 5 -14 0 -19 -2 -12 -5z"/>
<path d="M1210 2882 c0 -12 52 -92 60 -92 14 0 23 60 11 74 -11 13 -71 28 -71
18z"/>
<path d="M6555 2860 c-9 -16 -13 -30 -11 -30 3 0 12 14 21 30 9 17 13 30 11
30 -3 0 -12 -13 -21 -30z"/>
<path d="M4992 2860 c0 -14 2 -19 5 -12 2 6 2 18 0 25 -3 6 -5 1 -5 -13z"/>
<path d="M5193 2850 c-9 -25 -9 -30 3 -30 9 0 14 11 14 30 0 17 -1 30 -3 30
-1 0 -8 -13 -14 -30z"/>
<path d="M7845 2869 c-4 -6 -5 -12 -2 -15 2 -3 7 2 10 11 7 17 1 20 -8 4z"/>
<path d="M8745 2810 c0 -26 3 -46 8 -43 4 2 7 22 7 43 0 21 -3 41 -7 43 -5 3
-8 -17 -8 -43z"/>
<path d="M8650 2803 c1 -27 1 -27 15 -9 14 19 12 36 -6 36 -5 0 -9 -12 -9 -27z"/>
<path d="M7766 2794 c-5 -14 -4 -15 9 -4 17 14 19 20 6 20 -5 0 -12 -7 -15
-16z"/>
<path d="M7911 2787 c-13 -21 -12 -21 5 -5 10 10 16 20 13 22 -3 3 -11 -5 -18
-17z"/>
<path d="M6910 2781 c5 -11 15 -23 21 -27 6 -3 3 5 -6 20 -20 30 -30 35 -15 7z"/>
<path d="M7806 2785 c-9 -26 -7 -32 5 -12 6 10 9 21 6 23 -2 3 -7 -2 -11 -11z"/>
<path d="M7924 2726 c-3 -21 -4 -39 -1 -42 2 -3 8 11 11 32 4 20 5 38 2 41 -2
3 -8 -11 -12 -31z"/>
<path d="M7715 2724 c-16 -13 -25 -24 -20 -24 14 1 61 38 55 43 -3 3 -18 -6
-35 -19z"/>
<path d="M6870 2724 c0 -6 7 -19 16 -30 14 -18 14 -18 3 6 -14 31 -19 36 -19
24z"/>
<path d="M8758 2664 c-15 -24 -42 -53 -60 -64 -18 -11 -26 -20 -18 -20 18 0
81 63 100 98 21 41 6 32 -22 -14z"/>
<path d="M4100 2635 c30 -30 57 -55 59 -55 3 0 -19 25 -49 55 -30 30 -57 55
-59 55 -3 0 19 -25 49 -55z"/>
<path d="M4536 2633 c-4 -26 -8 -58 -9 -70 -1 -12 -4 -19 -6 -17 -8 8 -40 -29
-34 -39 3 -5 2 -7 -4 -4 -5 3 -31 0 -59 -7 -47 -12 -48 -13 -20 -20 19 -5 32
-3 37 5 4 6 17 9 29 6 16 -4 23 0 30 19 5 13 16 24 24 24 10 0 16 20 21 71 8
80 1 104 -9 32z"/>
<path d="M7485 2646 c-61 -27 -102 -99 -88 -155 3 -14 19 -49 34 -78 36 -68
45 -129 26 -174 -17 -41 -13 -59 13 -52 11 3 34 0 51 -6 18 -6 34 -10 35 -8 2
2 -6 31 -16 66 -34 109 -19 233 40 343 17 32 29 62 25 68 -9 14 -84 12 -120
-4z m33 -68 c20 -20 14 -68 -10 -89 -29 -24 -45 -24 -58 0 -16 30 -12 50 15
76 27 28 36 30 53 13z"/>
<path d="M4050 2595 c24 -25 46 -45 48 -45 9 0 -73 88 -83 89 -5 1 11 -19 35
-44z"/>
<path d="M4842 2613 c-13 -5 -7 -23 9 -23 6 0 8 4 5 9 -4 5 0 12 6 14 7 3 9 5
3 5 -5 0 -16 -2 -23 -5z"/>
<path d="M1430 2590 c5 -10 24 -30 42 -45 25 -21 34 -24 36 -13 5 25 -17 68
-35 69 -10 0 -26 2 -35 4 -14 3 -16 0 -8 -15z"/>
<path d="M5932 2598 c-14 -14 -16 -58 -2 -58 11 0 24 43 18 60 -2 7 -7 7 -16
-2z"/>
<path d="M5310 2590 c0 -5 7 -10 16 -10 8 0 12 5 9 10 -3 6 -10 10 -16 10 -5
0 -9 -4 -9 -10z"/>
<path d="M7922 2580 c0 -14 2 -19 5 -12 2 6 2 18 0 25 -3 6 -5 1 -5 -13z"/>
<path d="M5388 2554 c6 -11 19 -27 28 -35 16 -13 16 -12 6 7 -6 11 -19 27 -28
35 -16 13 -16 12 -6 -7z"/>
<path d="M5565 2518 c-8 -28 -15 -68 -14 -87 1 -27 4 -19 15 33 7 38 18 74 23
79 7 7 33 1 78 -16 93 -37 92 -37 95 -92 3 -48 3 -49 -51 -87 -30 -21 -50 -38
-44 -38 11 0 179 116 188 129 6 10 -202 115 -247 125 -26 6 -28 3 -43 -46z"/>
<path d="M7950 2544 c0 -23 61 -94 105 -119 28 -17 69 -30 105 -34 54 -7 64
-5 105 21 57 36 59 45 3 13 -57 -33 -123 -33 -186 -1 -47 24 -99 72 -120 111
-6 11 -12 15 -12 9z"/>
<path d="M4255 2519 c6 -8 104 -33 110 -27 2 2 -23 11 -55 19 -32 9 -57 12
-55 8z"/>
<path d="M8768 2495 c-16 -18 -28 -39 -28 -47 0 -11 77 -58 95 -58 2 0 -3 16
-11 35 -7 19 -14 48 -14 64 0 42 -11 43 -42 6z"/>
<path d="M7940 2514 c0 -6 7 -19 16 -30 14 -18 14 -18 3 6 -14 31 -19 36 -19
24z"/>
<path d="M8638 2453 c7 -3 16 -2 19 1 4 3 -2 6 -13 5 -11 0 -14 -3 -6 -6z"/>
<path d="M1690 2440 c-22 -14 -7 -21 59 -27 67 -6 83 8 30 26 -39 13 -69 14
-89 1z"/>
<path d="M7994 2431 c7 -11 46 -35 46 -28 0 3 -12 12 -26 22 -15 9 -23 12 -20
6z"/>
<path d="M2021 2419 c-13 -5 -22 -11 -20 -13 2 -2 36 -6 74 -9 39 -4 86 -9
105 -13 51 -10 26 9 -39 29 -60 19 -85 20 -120 6z"/>
<path d="M5447 2385 c3 -19 2 -42 -2 -52 -10 -24 -10 -97 0 -113 14 -22 22 18
19 90 -1 36 -3 75 -3 88 -1 12 -5 22 -10 22 -6 0 -7 -16 -4 -35z"/>
<path d="M6615 2344 c-54 -36 -138 -86 -188 -110 -49 -25 -87 -47 -85 -50 14
-13 257 127 358 206 51 40 11 18 -85 -46z"/>
<path d="M7880 2396 c0 -2 8 -10 18 -17 15 -13 16 -12 3 4 -13 16 -21 21 -21
13z"/>
<path d="M8062 2384 c8 -9 23 -14 33 -12 12 2 7 7 -16 15 -30 12 -32 11 -17
-3z"/>
<path d="M5554 2356 c5 -37 12 -54 19 -45 2 2 -2 22 -10 44 l-13 40 4 -39z"/>
<path d="M2221 2375 c12 -12 129 -43 129 -34 0 8 -24 16 -105 34 -16 4 -27 4
-24 0z"/>
<path d="M4851 2364 c0 -11 3 -14 6 -6 3 7 2 16 -1 19 -3 4 -6 -2 -5 -13z"/>
<path d="M7973 2343 c9 -2 23 -2 30 0 6 3 -1 5 -18 5 -16 0 -22 -2 -12 -5z"/>
<path d="M2360 2336 c0 -2 9 -6 20 -9 11 -3 18 -1 14 4 -5 9 -34 13 -34 5z"/>
<path d="M2410 2321 c0 -5 18 -13 40 -19 22 -5 40 -6 40 -1 0 5 -12 11 -27 15
-16 3 -34 7 -40 10 -7 2 -13 0 -13 -5z"/>
<path d="M5542 2280 c0 -14 2 -19 5 -12 2 6 2 18 0 25 -3 6 -5 1 -5 -13z"/>
<path d="M2538 2283 c7 -3 16 -2 19 1 4 3 -2 6 -13 5 -11 0 -14 -3 -6 -6z"/>
<path d="M2578 2273 c7 -3 16 -2 19 1 4 3 -2 6 -13 5 -11 0 -14 -3 -6 -6z"/>
<path d="M2610 2270 c0 -8 32 -18 85 -27 17 -3 27 -2 24 2 -11 11 -109 34
-109 25z"/>
<path d="M7185 2248 c-22 -11 -53 -31 -70 -44 -16 -12 -43 -26 -60 -30 -16 -4
-34 -10 -40 -14 -5 -5 -26 -13 -45 -18 l-35 -10 36 -1 c20 -1 62 8 95 19 94
33 110 13 42 -50 -38 -35 -40 -40 -21 -40 13 0 40 7 62 16 55 22 111 107 111
170 0 30 -21 31 -75 2z"/>
<path d="M2736 2241 c-3 -5 3 -11 14 -14 24 -6 36 8 14 17 -20 8 -22 8 -28 -3z"/>
<path d="M5528 2207 c-3 -19 -2 -25 4 -19 6 6 8 18 6 28 -3 14 -5 12 -10 -9z"/>
<path d="M2855 2210 c28 -12 45 -12 45 0 0 6 -15 10 -32 9 -28 0 -30 -2 -13
-9z"/>
<path d="M5938 2213 c12 -2 30 -2 40 0 9 3 -1 5 -23 4 -22 0 -30 -2 -17 -4z"/>
<path d="M2938 2195 c19 -8 44 -14 58 -13 37 3 15 15 -41 21 l-50 6 33 -14z"/>
<path d="M5570 2186 c0 -17 6 -18 78 -11 101 9 114 22 14 15 -48 -4 -80 -2
-84 5 -5 6 -8 2 -8 -9z"/>
<path d="M3085 2169 c42 -8 83 -15 150 -24 131 -17 188 -26 196 -31 5 -3 9 0
9 5 0 6 -3 11 -7 12 -5 0 -17 2 -28 4 -25 4 -72 11 -205 30 -113 16 -184 19
-115 4z"/>
<path d="M5515 2159 c-4 -6 -5 -12 -2 -15 2 -3 7 2 10 11 7 17 1 20 -8 4z"/>
<path d="M5902 2157 c-7 -7 -37 -27 -68 -43 -30 -16 -61 -35 -67 -43 -17 -20
89 39 126 71 18 15 29 27 26 28 -4 0 -11 -6 -17 -13z"/>
<path d="M5865 2083 c-60 -72 -81 -103 -68 -102 8 0 137 169 129 169 -2 0 -30
-30 -61 -67z"/>
<path d="M6267 2126 c-64 -27 -87 -43 -47 -33 77 20 160 29 245 25 52 -2 95 0
95 4 0 4 -15 8 -32 9 -18 0 -42 2 -53 4 -91 18 -152 15 -208 -9z"/>
<path d="M8254 2114 c-18 -15 -18 -15 3 -5 57 28 130 -4 165 -72 28 -55 22
-169 -11 -219 -19 -28 -22 -29 -16 -8 4 14 9 45 11 70 l3 45 -9 -45 c-4 -25
-13 -57 -19 -72 -6 -16 -7 -28 -3 -28 4 0 0 -5 -8 -10 -10 -6 -11 -10 -3 -10
22 0 72 80 83 135 16 76 -1 136 -55 191 -35 38 -47 44 -81 44 -22 0 -49 -7
-60 -16z"/>
<path d="M3461 2115 c3 -2 49 -11 102 -19 53 -8 102 -18 109 -22 7 -4 6 0 -2
8 -8 9 -42 20 -74 27 -59 11 -144 15 -135 6z"/>
<path d="M6588 2113 c6 -2 18 -2 25 0 6 3 1 5 -13 5 -14 0 -19 -2 -12 -5z"/>
<path d="M6658 2113 c7 -3 16 -2 19 1 4 3 -2 6 -13 5 -11 0 -14 -3 -6 -6z"/>
<path d="M6818 2113 c6 -2 18 -2 25 0 6 3 1 5 -13 5 -14 0 -19 -2 -12 -5z"/>
<path d="M7772 2098 c3 -7 31 -18 64 -24 32 -7 72 -17 88 -24 38 -14 43 -7 16
29 -21 30 -24 31 -97 31 -54 0 -74 -3 -71 -12z"/>
<path d="M3690 2080 c0 -6 11 -15 24 -20 36 -13 60 -54 51 -87 -7 -29 -84
-127 -120 -153 -11 -8 -35 -29 -54 -47 -19 -18 -38 -33 -42 -33 -4 0 -14 -6
-21 -13 -7 -7 -53 -39 -101 -71 -48 -32 -86 -60 -84 -62 7 -7 37 7 37 17 0 5
5 9 11 9 16 0 143 84 218 145 108 87 248 251 238 279 -3 8 -31 19 -64 26 -32
6 -66 14 -75 16 -10 3 -18 0 -18 -6z"/>
<path d="M3915 2079 c-11 -16 255 -40 425 -37 69 1 98 3 65 5 -151 7 -404 26
-443 33 -23 4 -45 4 -47 -1z"/>
<path d="M5480 2070 c-6 -11 -8 -20 -6 -20 3 0 10 9 16 20 6 11 8 20 6 20 -3
0 -10 -9 -16 -20z"/>
<path d="M6125 2071 c-63 -29 -179 -71 -195 -71 -13 0 -13 -2 -1 -9 10 -6 25
-4 43 5 15 8 29 14 30 14 8 -3 172 61 183 71 16 15 -17 9 -60 -10z"/>
<path d="M8212 2025 c-28 -19 -63 -37 -79 -41 -46 -11 -56 -24 -37 -45 23 -25
43 -24 102 6 69 34 96 20 87 -45 -2 -14 -4 -32 -4 -40 -1 -8 -5 -21 -10 -29
-8 -12 -12 -12 -25 -2 -21 17 -60 10 -64 -12 -5 -24 25 -57 51 -57 11 0 39 20
62 44 57 59 75 127 51 190 -15 38 -46 66 -75 66 -5 0 -31 -16 -59 -35z"/>
<path d="M3923 2015 c0 -22 2 -30 4 -17 2 12 2 30 0 40 -3 9 -5 -1 -4 -23z"/>
<path d="M7290 2033 c-106 -73 -133 -191 -54 -234 33 -17 41 -4 21 30 -9 16
-17 49 -17 73 0 35 8 53 40 96 22 28 39 52 37 52 -1 0 -14 -8 -27 -17z"/>
<path d="M5419 1983 c-13 -16 -12 -17 4 -4 16 13 21 21 13 21 -2 0 -10 -8 -17
-17z"/>
<path d="M5597 1964 c-11 -14 -17 -28 -14 -30 3 -3 15 9 27 25 12 17 18 31 13
31 -4 0 -16 -12 -26 -26z"/>
<path d="M5844 1961 c-29 -13 -61 -44 -108 -102 -36 -46 -81 -100 -98 -119
-50 -54 -128 -160 -128 -175 0 -12 50 -55 63 -55 3 0 5 27 5 59 -1 63 17 104
66 150 14 14 26 31 26 38 0 8 5 11 10 8 6 -3 10 -2 10 4 0 18 109 128 165 166
30 21 55 40 55 42 0 8 -28 1 -66 -16z"/>
<path d="M3857 1906 c4 -34 3 -47 -4 -43 -6 4 -9 16 -6 27 6 24 -9 26 -27 5
-7 -8 -19 -15 -27 -15 -8 0 -12 -4 -8 -9 3 -5 -2 -16 -10 -24 -8 -9 -15 -20
-15 -26 0 -6 -6 -11 -14 -11 -8 0 -26 -14 -40 -31 -14 -17 -26 -27 -26 -22 0
4 -5 0 -11 -10 -12 -21 -2 -127 13 -127 5 0 6 -4 3 -10 -9 -15 26 -131 38
-123 5 3 7 1 4 -5 -9 -13 2 -44 13 -37 5 3 12 0 16 -6 4 -8 3 -9 -4 -5 -20 12
-13 -9 19 -57 17 -26 35 -45 40 -41 5 3 6 -1 3 -9 -7 -18 112 -140 128 -131 6
4 8 3 5 -4 -12 -18 173 -139 193 -127 5 3 18 1 27 -5 16 -9 15 -10 -4 -5 -42
11 -24 -6 30 -30 153 -67 376 -124 490 -125 20 0 37 -4 37 -8 0 -20 -29 -32
-79 -33 l-56 -2 50 -7 50 -7 63 63 c35 35 60 69 57 75 -4 6 2 13 14 16 12 3
21 12 21 20 0 8 4 12 8 9 5 -3 21 6 37 20 15 13 32 24 36 24 5 0 6 6 3 14 -4
11 4 16 28 19 18 2 -15 5 -73 5 -110 2 -243 25 -359 61 -77 25 -73 24 -65 9 4
-7 0 -6 -7 3 -12 15 -188 109 -203 109 -4 0 -3 -5 1 -12 4 -7 3 -8 -5 -4 -6 4
-9 11 -6 16 3 4 -12 20 -33 35 -20 16 -52 42 -70 59 -18 17 -36 31 -40 31 -4
0 -6 5 -4 11 3 13 -28 41 -37 34 -3 -3 -6 2 -6 10 0 8 -17 42 -39 74 -21 33
-43 70 -49 83 -8 18 -13 20 -20 11 -6 -9 -7 -8 -3 4 9 29 -13 78 -32 71 -13
-4 -14 -3 -4 5 11 8 10 22 -7 79 -12 39 -21 81 -22 94 0 13 -4 33 -9 44 -6 13
-7 2 -3 -29z m123 -346 c0 -5 -2 -10 -4 -10 -3 0 -8 5 -11 10 -3 6 -1 10 4 10
6 0 11 -4 11 -10z m-180 -172 c0 -4 -4 -8 -9 -8 -6 0 -12 4 -15 8 -3 5 1 9 9
9 8 0 15 -4 15 -9z m331 -15 c13 -17 13 -17 -6 -3 -11 8 -22 16 -24 17 -2 2 0
3 6 3 6 0 17 -8 24 -17z m79 -69 c0 -13 -27 -1 -38 16 -12 20 -12 21 13 4 14
-9 25 -18 25 -20z m-219 -141 c13 -17 13 -17 -6 -3 -11 8 -22 16 -24 17 -2 2
0 3 6 3 6 0 17 -8 24 -17z m545 -18 c20 -19 5 -19 -20 0 -11 9 -14 15 -7 15 7
0 19 -7 27 -15z m-492 -10 c3 -8 12 -15 19 -15 8 0 22 -9 32 -20 16 -18 12
-17 -28 5 -51 29 -67 45 -44 45 8 0 17 -7 21 -15z m766 -39 c0 -2 -7 -7 -16
-10 -8 -3 -12 -2 -9 4 6 10 25 14 25 6z m-177 -63 c-7 -2 -19 -2 -25 0 -7 3
-2 5 12 5 14 0 19 -2 13 -5z m81 -12 c4 -5 -3 -7 -14 -4 -23 6 -26 13 -6 13 8
0 17 -4 20 -9z"/>
<path d="M5379 1893 c-12 -16 -12 -17 2 -6 9 7 20 9 24 5 5 -4 5 -1 1 6 -9 16
-11 15 -27 -5z"/>
<path d="M5541 1897 c2 -1 15 -11 29 -22 l25 -20 -19 23 c-11 12 -24 22 -29
22 -6 0 -8 -1 -6 -3z"/>
<path d="M7137 1883 c-9 -9 -9 -81 1 -86 4 -3 7 17 7 44 0 27 0 49 -1 49 0 0
-4 -3 -7 -7z"/>
<path d="M7010 1833 c0 -14 19 -38 25 -32 8 8 -5 39 -16 39 -5 0 -9 -3 -9 -7z"/>
<path d="M5307 1777 l-17 -32 20 24 c17 20 26 41 18 41 -2 0 -11 -15 -21 -33z"/>
<path d="M5370 1784 c0 -8 5 -12 10 -9 6 4 8 11 5 16 -9 14 -15 11 -15 -7z"/>
<path d="M7140 1766 c0 -8 4 -17 9 -20 5 -4 7 3 4 14 -6 23 -13 26 -13 6z"/>
<path d="M5266 1703 c-6 -14 -5 -15 5 -6 7 7 10 15 7 18 -3 3 -9 -2 -12 -12z"/>
<path d="M8350 1682 c-21 -42 -22 -42 -16 -42 8 0 38 61 33 66 -2 2 -10 -8
-17 -24z"/>
<path d="M5246 1665 c-9 -26 -7 -32 5 -12 6 10 9 21 6 23 -2 3 -7 -2 -11 -11z"/>
<path d="M7210 1670 c0 -5 9 -10 20 -10 11 0 20 5 20 10 0 6 -9 10 -20 10 -11
0 -20 -4 -20 -10z"/>
<path d="M8671 1630 c-41 -16 -78 -35 -82 -42 -18 -29 -27 -105 -18 -158 14
-88 72 -126 117 -77 38 40 24 87 -30 106 -28 10 -35 9 -45 -6 -21 -28 -15 5 8
47 12 21 37 46 56 56 32 17 97 105 77 103 -5 -1 -42 -14 -83 -29z"/>
<path d="M3310 1580 c0 -5 5 -10 10 -10 6 0 10 5 10 10 0 6 -4 10 -10 10 -5 0
-10 -4 -10 -10z"/>
<path d="M5404 1543 c9 -17 22 -35 28 -39 8 -5 7 0 -2 11 -14 17 -13 18 3 12
9 -3 17 -2 17 3 0 6 -5 10 -12 10 -6 0 -20 8 -31 18 -19 17 -20 17 -3 -15z"/>
<path d="M8220 1560 c0 -17 68 -86 76 -77 4 4 3 24 -2 45 -8 32 -13 37 -41 40
-19 2 -33 -1 -33 -8z"/>
<path d="M5251 1544 c0 -11 3 -14 6 -6 3 7 2 16 -1 19 -3 4 -6 -2 -5 -13z"/>
<path d="M8442 1540 c0 -14 2 -19 5 -12 2 6 2 18 0 25 -3 6 -5 1 -5 -13z"/>
<path d="M3230 1530 c-37 -28 -20 -32 20 -4 19 13 28 24 20 24 -8 0 -26 -9
-40 -20z"/>
<path d="M3184 1495 c-4 -8 -11 -15 -18 -15 -11 0 -116 -66 -126 -80 -3 -4
-12 -9 -20 -13 -8 -4 -42 -29 -75 -57 -33 -27 -77 -60 -97 -72 -51 -31 -49
-45 2 -17 22 13 40 26 40 30 0 4 17 17 38 30 20 12 49 33 64 47 15 13 35 30
46 36 64 38 162 108 162 116 0 15 -10 12 -16 -5z"/>
<path d="M8434 1437 c2 -27 9 -54 16 -60 10 -9 11 -7 4 13 -4 14 -11 41 -15
60 -7 31 -8 29 -5 -13z"/>
<path d="M5410 1413 c-15 -5 -192 -184 -187 -189 1 -2 16 9 32 25 60 55 127
101 149 101 26 0 56 -29 56 -53 0 -22 36 -22 44 -1 8 22 7 67 -2 81 -11 17
-74 41 -92 36z"/>
<path d="M8400 1332 c0 -9 63 -52 75 -52 15 0 -36 48 -56 53 -10 3 -19 2 -19
-1z"/>
<path d="M3665 1276 c10 -14 19 -26 22 -26 7 0 -17 39 -28 46 -6 3 -3 -5 6
-20z"/>
<path d="M8580 1296 c0 -3 9 -10 20 -16 11 -6 20 -8 20 -6 0 3 -9 10 -20 16
-11 6 -20 8 -20 6z"/>
<path d="M5173 1195 c-26 -24 -100 -80 -152 -115 -13 -8 -70 -51 -129 -95
l-106 -80 -38 -94 c-21 -52 -38 -106 -38 -119 0 -24 55 -123 72 -130 5 -2 8
-8 8 -13 0 -5 21 -39 48 -76 26 -38 68 -102 92 -143 55 -91 83 -125 118 -143
15 -8 44 -24 65 -36 58 -35 44 -9 -19 34 -30 21 -74 61 -98 89 -59 70 -192
275 -223 342 -59 131 1 263 182 395 91 66 243 188 250 199 11 18 -4 11 -32
-15z"/>
<path d="M2758 1182 c-38 -28 -52 -50 -20 -33 17 9 70 61 61 61 -2 -1 -21 -13
-41 -28z"/>
<path d="M3756 1132 c10 -18 28 -41 38 -50 12 -10 8 0 -9 23 -40 56 -51 66
-29 27z"/>
<path d="M2622 1047 c-18 -18 -32 -37 -32 -41 0 -8 27 18 59 57 23 29 7 19
-27 -16z"/>
<path d="M3990 1056 c0 -2 7 -7 16 -10 8 -3 12 -2 9 4 -6 10 -25 14 -25 6z"/>
<path d="M3907 945 c34 -38 97 -104 139 -145 52 -50 40 -35 -36 45 -153 162
-175 183 -103 100z"/>
<path d="M2567 993 c-4 -3 -7 -11 -7 -17 0 -6 5 -5 12 2 6 6 9 14 7 17 -3 3
-9 2 -12 -2z"/>
<path d="M4114 986 c11 -9 24 -16 30 -16 12 0 7 5 -24 19 -24 11 -24 11 -6 -3z"/>
<path d="M4177 959 c7 -7 15 -10 18 -7 3 3 -2 9 -12 12 -14 6 -15 5 -6 -5z"/>
<path d="M4210 946 c0 -2 7 -7 16 -10 8 -3 12 -2 9 4 -6 10 -25 14 -25 6z"/>
<path d="M2506 910 c-9 -17 -13 -30 -8 -30 9 0 35 50 29 56 -2 2 -11 -10 -21
-26z"/>
<path d="M4257 929 c7 -7 15 -10 18 -7 3 3 -2 9 -12 12 -14 6 -15 5 -6 -5z"/>
<path d="M4298 913 c7 -3 16 -2 19 1 4 3 -2 6 -13 5 -11 0 -14 -3 -6 -6z"/>
<path d="M4338 903 c7 -3 16 -2 19 1 4 3 -2 6 -13 5 -11 0 -14 -3 -6 -6z"/>
<path d="M4430 880 c34 -11 60 -11 35 0 -11 5 -29 8 -40 8 -16 0 -15 -2 5 -8z"/>
<path d="M2466 853 c-6 -14 -5 -15 5 -6 7 7 10 15 7 18 -3 3 -9 -2 -12 -12z"/>
<path d="M4622 818 c-18 -11 -31 -23 -28 -25 5 -5 76 35 76 43 0 8 -15 2 -48
-18z"/>
<path d="M2412 758 c-7 -7 -12 -16 -12 -21 0 -4 -19 -47 -42 -95 -73 -153 -77
-162 -68 -162 11 0 27 27 31 55 2 11 7 22 10 25 10 8 101 202 96 206 -2 2 -9
-2 -15 -8z"/>
<path d="M4140 715 c8 -10 51 -45 95 -78 100 -75 113 -85 100 -70 -19 21 -210
166 -195 148z"/>
<path d="M4359 546 c14 -16 71 -51 71 -43 0 3 -19 17 -42 32 -25 16 -37 21
-29 11z"/>
<path d="M2263 443 c-7 -15 -13 -32 -13 -37 0 -6 -7 -23 -14 -38 -8 -16 -11
-28 -7 -28 7 0 61 112 61 126 0 14 -17 0 -27 -23z"/>
<path d="M4500 456 c0 -3 14 -12 30 -21 17 -9 30 -13 30 -11 0 3 -13 12 -30
21 -16 9 -30 13 -30 11z"/>
<path d="M4570 415 c0 -2 41 -24 91 -49 49 -25 87 -41 84 -36 -10 16 -175 97
-175 85z"/>
<path d="M2210 320 c0 -5 5 -10 10 -10 6 0 10 5 10 10 0 6 -4 10 -10 10 -5 0
-10 -4 -10 -10z"/>
<path d="M2157 172 c-21 -59 -45 -120 -52 -137 -15 -31 -10 -50 6 -25 5 8 13
29 18 45 5 17 19 55 31 85 28 72 42 119 38 131 -2 5 -20 -39 -41 -99z"/>
<path d="M5160 132 c0 -12 19 -26 26 -19 2 2 -2 10 -11 17 -9 8 -15 8 -15 2z"/>
<path d="M5203 103 c12 -19 97 -75 97 -65 0 6 -11 17 -25 26 -14 9 -37 24 -52
34 -15 9 -24 11 -20 5z"/>
<path d="M5324 15 c8 -8 23 -15 33 -15 14 1 13 4 -7 15 -33 19 -45 19 -26 0z"/>
</g>
</svg>
